# xmcd
#
# Track frame offsets:
#	150
#	18333
#	73341
#	126154
#	147004
#	201686
#	205591
#	227391
#
# Disc length: 3376 seconds
#
# Revision: 1
# Processed by: cddbd v1.5.2PL0 Copyright (c) Steve Scherf et al.
# Submitted via: audiograbber 1.83.01
#
DISCID=720d2e08
DTITLE=Grateful Dead - 77-05-21 Lakeland Civic Centre Arena, Lakeland FL
DYEAR=1900
DGENRE=
TTITLE0=Drums
TTITLE1=The Other One
TTITLE2=Comes A Time
TTITLE3=St Stephen
TTITLE4=Not Fade Away
TTITLE5=St Stephen
TTITLE6=One More Saturday Night
TTITLE7=US Blues
EXTD=
EXTT0=
EXTT1=
EXTT2=
EXTT3=
EXTT4=
EXTT5=
EXTT6=
EXTT7=
PLAYORDER=
